<svg width="1110" height="967" viewBox="0 0 1110 967" fill="none" xmlns="http://www.w3.org/2000/svg">
<path opacity="0.5" d="M318.635 -107.306C198.697 -6.78342 180.111 183.298 98.8809 323.527C70.6041 372.322 34.0667 415.992 15.0036 470.123C-28.7619 594.026 31.472 734.572 112.093 832.981C150.536 879.927 195.44 922.936 249.77 942.723C291.55 957.94 336.348 958.574 380.325 958.971L1150.79 966.896C1236.81 967.768 1332.39 964.624 1394.24 898.208C1436.87 852.478 1454.18 785.692 1468.88 721.944C1486.93 643.613 1503.3 558.546 1475.2 483.94C1443.11 398.582 1361.96 350.21 1311.55 276.555C1229.74 157.223 1231.62 -23.2686 1127.44 -118.534C1078.8 -162.996 1014.62 -180.432 952.083 -189.15C834.184 -205.609 722.506 -174.541 606.725 -178.873C507.756 -182.572 400.739 -176.126 318.635 -107.306Z" fill="#E7ECFF"/>
</svg>
