<svg width="16" height="16" viewBox="0 0 16 16" fill="none" xmlns="http://www.w3.org/2000/svg">
<path d="M16 2.8725C15.405 3.1335 14.771 3.3065 14.11 3.3905C14.79 2.9845 15.309 2.3465 15.553 1.5775C14.919 1.9555 14.219 2.2225 13.473 2.3715C12.871 1.7305 12.013 1.3335 11.077 1.3335C9.261 1.3335 7.799 2.8075 7.799 4.6145C7.799 4.8745 7.821 5.1245 7.875 5.3625C5.148 5.2295 2.735 3.9225 1.114 1.9315C0.831 2.4225 0.665 2.9845 0.665 3.5895C0.665 4.7255 1.25 5.7325 2.122 6.3155C1.595 6.3055 1.078 6.1525 0.64 5.9115C0.64 5.9215 0.64 5.9345 0.64 5.9475C0.64 7.5415 1.777 8.8655 3.268 9.1705C3.001 9.2435 2.71 9.2785 2.408 9.2785C2.198 9.2785 1.986 9.2665 1.787 9.2225C2.212 10.5215 3.418 11.4765 4.852 11.5075C3.736 12.3805 2.319 12.9065 0.785 12.9065C0.516 12.9065 0.258 12.8945 0 12.8615C1.453 13.7985 3.175 14.3335 5.032 14.3335C11.068 14.3335 14.368 9.3335 14.368 4.9995C14.368 4.8545 14.363 4.7145 14.356 4.5755C15.007 4.1135 15.554 3.5365 16 2.8725Z" fill="#B0B8BC"/>
</svg>
