<svg width="16" height="16" viewBox="0 0 16 16" fill="none" xmlns="http://www.w3.org/2000/svg">
<path fill-rule="evenodd" clip-rule="evenodd" d="M13.456 2.7585C14.415 2.8125 14.886 2.9545 15.32 3.7265C15.772 4.4975 16 5.8255 16 8.1645V8.1675V8.1725C16 10.5005 15.772 11.8385 15.321 12.6015C14.887 13.3735 14.416 13.5135 13.457 13.5785C12.498 13.6335 10.089 13.6665 8.002 13.6665C5.911 13.6665 3.501 13.6335 2.543 13.5775C1.586 13.5125 1.115 13.3725 0.677 12.6005C0.23 11.8375 0 10.4995 0 8.1715V8.1695V8.1665V8.1635C0 5.8255 0.23 4.4975 0.677 3.7265C1.115 2.9535 1.587 2.8125 2.544 2.7575C3.501 2.6935 5.911 2.6665 8.002 2.6665C10.089 2.6665 12.498 2.6935 13.456 2.7585ZM11 8.1665L6 5.1665V11.1665L11 8.1665Z" fill="#B0B8BC"/>
</svg>
